# xmcd CD database file
#
# Track frame offsets:
#	150
#	18036
#	33693
#	50942
#	62462
#	77482
#	92729
#	113663
#	135618
#	148594
#	163650
#	179977
#	193593
#	213247
#
# Disc length: 3067 seconds
#
# Revision: 0
# Processed by: cddbd v1.5.2PL0 Copyright (c) Steve Scherf et al.
# Submitted via: CD2WAV32(JP) R3.22
#
DISCID=c40bf90e
DTITLE=美空ひばり - 美空ひばり大全集 ～共に歩んだ20年～
DYEAR=2012
DGENRE=Folk
TTITLE0=明治一代女
TTITLE1=船頭可愛や
TTITLE2=野崎小唄
TTITLE3=人生の並木路
TTITLE4=湖畔の宿
TTITLE5=博多夜船
TTITLE6=影を慕いて
TTITLE7=髪
TTITLE8=小さなクラブ
TTITLE9=いい子だから
TTITLE10=夾竹桃(きょうちくとう)の咲く頃
TTITLE11=さよならの向うに
TTITLE12=島の夕顔
TTITLE13=喜びの日の涙
EXTD=
EXTT0=
EXTT1=
EXTT2=
EXTT3=
EXTT4=
EXTT5=
EXTT6=
EXTT7=
EXTT8=
EXTT9=
EXTT10=
EXTT11=
EXTT12=
EXTT13=
PLAYORDER=
